#!OML:ASF G:\ViconDB\ViconDB\414\test\team2\shane.ASF
:FULLY-SPECIFIED
:DEGREES
169
root 7.99445 16.1756 36.4163 -11.9505 4.629 -6.05523
lowerback 12.349 -1.92837 0.923573
upperback 4.07766 -2.36595 2.05704
thorax -2.59494 -1.18214 1.9585
lowerneck -14.767 -4.5793 -12.0215
upperneck 27.5264 -7.08852 12.6934
head 12.4481 -2.90588 5.87275
rclavicle 3.7912e-014 -3.12092e-014
rhumerus -62.7189 29.6243 -102.158
rradius 71.713
rwrist 30.6134
rhand -44.5978 -13.7802
rfingers 7.12502
rthumb -17.3966 -43.0217
lclavicle 3.7912e-014 -3.12092e-014
lhumerus -37.9755 -23.3039 101.654
lradius 78.9186
lwrist -20.1081
lhand -54.0968 5.52082
lfingers 7.12502
lthumb -26.516 33.6852
rfemur -14.5207 -17.4364 17.4077
rtibia 70.687
rfoot -18.3979 -6.08781
rtoes -7.1162
lfemur 5.29266 5.64628 -10.7432
ltibia 42.5735
lfoot -34.2283 -11.4687
ltoes -6.14875
170
root 7.99583 16.2541 36.7989 -11.8309 4.46116 -6.1171
lowerback 12.5211 -2.22933 1.1322
upperback 3.80319 -2.72448 2.18986
thorax -2.96845 -1.35896 2.0468
lowerneck -14.9251 -4.28474 -11.9082
upperneck 27.8057 -6.54103 12.1743
head 12.4795 -2.70716 5.74283
rclavicle 2.40405e-015 -3.37934e-015
rhumerus -64.216 29.8649 -102.094
rradius 73.7834
rwrist 29.7845
rhand -44.4999 -12.8651
rfingers 7.12502
rthumb -17.3024 -42.1149
lclavicle 2.40405e-015 -3.37934e-015
lhumerus -38.4869 -23.0898 102.287
lradius 80.957
lwrist -19.4066
lhand -54.2614 5.38222
lfingers 7.12502
lthumb -26.6735 33.5227
rfemur -16.1508 -17.3435 18.2992
rtibia 67.8136
rfoot -17.5524 -5.07009
rtoes -11.548
lfemur 7.40645 5.35038 -10.5095
ltibia 40.9754
lfoot -33.1918 -11.3618
ltoes -7.84063
171
root 7.97825 16.3384 37.2012 -11.7884 4.14762 -5.85108
lowerback 12.4206 -2.38328 0.726318
upperback 3.6458 -2.9766 2.25953
thorax -3.04726 -1.48419 2.38445
lowerneck -15.0497 -3.99784 -11.6421
upperneck 28.0615 -6.04141 11.6309
head 12.5003 -2.51881 5.56674
rclavicle 2.8187e-016 -2.85753e-015
rhumerus -65.5899 29.7558 -101.988
rradius 75.4174
rwrist 31.0085
rhand -44.8577 -13.8848
rfingers 7.12502
rthumb -17.6467 -43.104
lclavicle 2.8187e-016 -2.85753e-015
lhumerus -39.2141 -22.8952 102.756
lradius 82.6512
lwrist -20.8156
lhand -54.3991 8.24815
lfingers 7.12502
lthumb -26.8053 36.3685
rfemur -17.3957 -16.9333 18.8502
rtibia 64.477
rfoot -17.1097 -3.14302
rtoes -7.30353
lfemur 9.71136 5.3936 -10.4111
ltibia 39.2542
lfoot -31.8456 -11.6438
ltoes -10.6162
172
root 7.99524 16.4315 37.6443 -11.7635 2.43031 -5.46336
lowerback 11.5454 -2.15409 0.876517
upperback 3.75176 -2.68292 2.23279
thorax -2.4781 -1.34304 2.18602
lowerneck -15.2177 -3.74646 -11.3223
upperneck 28.2921 -5.55941 10.9527
head 12.5227 -2.34871 5.32277
rclavicle 2.63871e-014 6.95746e-015
rhumerus -66.7903 29.7196 -101.796
rradius 77.2694
rwrist 30.6077
rhand -44.955 -13.675
rfingers 7.12502
rthumb -17.7403 -42.8858
lclavicle 2.63871e-014 6.95746e-015
lhumerus -39.9562 -22.5298 103.182
lradius 84.7179
lwrist -20.4813
lhand -54.0949 7.15704
lfingers 7.12502
lthumb -26.5142 35.3217
rfemur -18.2422 -15.5376 19.2461
rtibia 60.8674
rfoot -16.2198 -0.426223
rtoes -8.24822
lfemur 12.4622 6.24067 -10.4692
ltibia 37.5748
lfoot -30.3018 -11.7718
ltoes -12.9049
173
root 7.9719 16.5199 38.0529 -11.7132 2.05543 -5.5753
lowerback 11.2628 -2.31965 0.722549
upperback 3.66085 -2.91887 2.46235
thorax -2.3912 -1.46295 2.53154
lowerneck -15.4219 -3.42519 -11.016
upperneck 28.5771 -5.04184 10.5025
head 12.583 -2.1374 5.18197
rclavicle 3.51709e-014 -2.17669e-014
rhumerus -67.464 28.9129 -101.178
rradius 78.7304
rwrist 30.7248
rhand -44.7688 -13.4934
rfingers 7.12502
rthumb -17.5612 -42.7203
lclavicle 3.51709e-014 -2.17669e-014
lhumerus -40.7889 -22.1075 103.575
lradius 86.5584
lwrist -20.5913
lhand -53.7838 7.11061
lfingers 7.12502
lthumb -26.2164 35.3199
rfemur -18.8742 -15.0476 20.235
rtibia 56.9291
rfoot -14.9043 1.67877
rtoes -9.0742
lfemur 14.5354 6.45489 -9.60369
ltibia 36.1279
lfoot -28.2485 -13.1734
ltoes -15.6293
174
root 7.94837 16.611 38.466 -11.5754 1.74697 -5.538
lowerback 10.3875 -2.49252 0.550079
upperback 3.72222 -3.18772 2.57582
thorax -1.82282 -1.60352 2.73216
lowerneck -15.3972 -3.21634 -10.8728
upperneck 28.7534 -4.69417 10.1722
head 12.5872 -2.01108 5.08594
rclavicle 3.9406e-014 1.80894e-014
rhumerus -68.0206 28.3568 -100.668
rradius 80.1355
rwrist 30.5603
rhand -44.6592 -13.4084
rfingers 7.12502
rthumb -17.4557 -42.6446
lclavicle 3.9406e-014 1.80894e-014
lhumerus -41.586 -21.9184 103.805
lradius 88.3082
lwrist -20.7175
lhand -53.5102 7.32207
lfingers 7.12502
lthumb -25.9544 35.57
rfemur -19.3373 -14.6594 20.988
rtibia 52.6419
rfoot -12.7022 3.79163
rtoes -9.0742
lfemur 16.4388 6.65434 -8.8837
ltibia 34.6523
lfoot -25.6795 -14.9664
ltoes -17.7849
